<svg xmlns="http://www.w3.org/2000/svg" width="480pt" height="290pt" viewBox="0 0 480 290" version="1.1" xmlns:xlink="http://www.w3.org/1999/xlink">
  <g id="surface2" transform="matrix(1,0,0,1,2,63)">
    <path style="stroke:none;fill-rule:evenodd;fill:rgb(0.000000%,0.000000%,0.000000%);fill-opacity:1" d="M 237.949219 157.949219 C 224.550781 157.617188 213.398438 153.000000 204.500000 144.101562 C 195.601562 135.199219 190.984375 124.050781 190.648438 110.648438 C 190.648438 110.648438 190.648438 110.632812 190.648438 110.601562 C 190.785156 100.898438 193.417969 92.199219 198.550781 84.500000 L 211.050781 106.351562 C 213.851562 110.984375 216.464844 116.933594 218.898438 124.199219 C 221.367188 131.464844 223.035156 140.500000 223.898438 151.300781 C 228.332031 152.832031 233.015625 153.617188 237.949219 153.648438 C 242.785156 153.617188 247.382812 152.851562 251.750000 151.351562 C 252.714844 139.449219 254.550781 129.750000 257.250000 122.250000 C 259.949219 114.785156 262.832031 108.714844 265.898438 104.050781 L 277.101562 84.148438 C 282.367188 91.949219 285.066406 100.765625 285.199219 110.601562 C 285.199219 110.632812 285.199219 110.648438 285.199219 110.648438 C 284.867188 124.050781 280.250000 135.199219 271.351562 144.101562 C 262.449219 153.000000 251.316406 157.617188 237.949219 157.949219 M 260.699219 60.750000 C 259.035156 54.882812 254.851562 51.714844 248.148438 51.250000 C 248.117188 51.250000 247.332031 51.265625 245.800781 51.300781 L 245.800781 56.449219 L 238.199219 56.449219 L 238.199219 60.000000 L 245.800781 60.000000 L 245.800781 66.300781 L 238.199219 66.300781 L 238.199219 69.851562 L 245.800781 69.851562 L 245.800781 75.000000 C 247.332031 75.035156 248.117188 75.050781 248.148438 75.050781 C 253.351562 74.816406 257.148438 72.667969 259.550781 68.601562 C 263.750000 70.765625 267.515625 73.464844 270.851562 76.699219 L 252.500000 101.851562 C 248.234375 107.550781 243.285156 110.449219 237.648438 110.550781 C 232.015625 110.449219 227.066406 107.550781 222.800781 101.851562 L 204.699219 77.050781 C 208.101562 73.683594 211.984375 70.867188 216.351562 68.601562 C 218.714844 72.667969 222.515625 74.816406 227.750000 75.050781 C 227.750000 75.015625 228.515625 75.000000 230.050781 75.000000 L 230.050781 51.300781 C 228.515625 51.265625 227.750000 51.250000 227.750000 51.250000 C 221.050781 51.714844 216.851562 54.882812 215.148438 60.750000 C 205.250000 65.382812 197.449219 72.117188 191.750000 80.949219 C 186.050781 89.785156 183.148438 99.683594 183.050781 110.648438 C 183.449219 126.183594 188.816406 139.117188 199.148438 149.449219 C 209.484375 159.785156 222.417969 165.148438 237.949219 165.550781 C 253.484375 165.148438 266.398438 159.785156 276.699219 149.449219 C 287.035156 139.117188 292.398438 126.183594 292.800781 110.648438 C 292.699219 99.683594 289.800781 89.785156 284.101562 80.949219 C 278.398438 72.117188 270.601562 65.382812 260.699219 60.750000 "/>
    <path style="stroke:none;fill-rule:evenodd;fill:rgb(0.000000%,0.000000%,0.000000%);fill-opacity:1" d="M 226.648438 93.949219 C 226.714844 97.148438 227.816406 99.816406 229.949219 101.949219 C 232.082031 104.082031 234.734375 105.183594 237.898438 105.250000 C 241.101562 105.183594 243.765625 104.082031 245.898438 101.949219 C 248.035156 99.816406 249.132812 97.148438 249.199219 93.949219 C 249.132812 90.785156 248.035156 88.132812 245.898438 86.000000 C 243.765625 83.867188 241.101562 82.765625 237.898438 82.699219 C 234.734375 82.765625 232.082031 83.867188 229.949219 86.000000 C 227.816406 88.132812 226.714844 90.785156 226.648438 93.949219 "/>
    <path style="stroke:none;fill-rule:evenodd;fill:rgb(100.000000%,76.862745%,14.509804%);fill-opacity:1" d="M 273.398438 21.398438 L 251.500000 34.250000 L 255.500000 36.148438 L 243.000000 48.648438 L 264.898438 35.851562 L 260.898438 33.898438 L 273.398438 21.398438 "/>
    <path style="stroke:none;fill-rule:evenodd;fill:rgb(100.000000%,76.862745%,14.509804%);fill-opacity:1" d="M 225.000000 34.250000 L 203.101562 21.398438 L 215.601562 33.898438 L 211.601562 35.851562 L 233.500000 48.648438 L 221.000000 36.148438 L 225.000000 34.250000 "/>
  </g>
  <g id="surface4">
    <defs><path id="flsTextPath529" d="M 0 90.5 C 0 40.518231 40.518231 0 90.5 0 C 140.481769 0 181 40.518231 181 90.5"/></defs>
    <text style="fill:rgb(0,0,0)" font-family="Arial Black" font-size="50" transform="matrix(1,0,0,1,149.5,65.5)" xml:space="preserve" text-anchor="middle"><textPath xlink:href="#flsTextPath529" startOffset="50%"><![CDATA[TABCC]]></textPath></text>
    <text style="fill:rgb(0,0,0)" font-family="Dancing Script" font-size="35" transform="matrix(1,0,0,1,63,266)" xml:space="preserve"><![CDATA[Connecting the Disconnected]]></text>
  </g>
</svg>